<svg width="169" height="192" viewBox="0 0 169 192" fill="none" xmlns="http://www.w3.org/2000/svg">
<path d="M52 156C55.1556 155.917 58.3112 155.835 61.5625 155.75C62.5429 155.714 63.5233 155.677 64.5334 155.64C70.5652 155.564 74.1384 156.346 79 160C81.7976 163.903 81.6615 168.378 81 173C78.545 177.343 75.6961 179.407 71 181C66.9863 181.236 63.0152 181.175 59 181C59 184.3 59 187.6 59 191C56.69 191 54.38 191 52 191C52 179.45 52 167.9 52 156Z" fill="currentColor"/>
<path d="M19.5625 154.938C20.6969 154.958 21.8312 154.979 23 155C25.0032 159.48 26.9968 163.964 28.9814 168.452C29.6578 169.978 30.3368 171.503 31.0186 173.026C31.9985 175.218 32.9689 177.413 33.9375 179.609C34.2437 180.289 34.55 180.968 34.8655 181.668C36.3606 185.084 37 187.2 37 191C34.69 191 32.38 191 30 191C29.34 188.69 28.68 186.38 28 184C22.06 184.33 16.12 184.66 10 185C9.01 186.98 8.02 188.96 7 191C4.69 191 2.38 191 0 191C1.40402 186.559 3.09888 182.354 5.00391 178.105C5.28725 177.473 5.5706 176.84 5.86253 176.188C6.45701 174.862 7.0529 173.537 7.65015 172.212C8.56692 170.178 9.47809 168.141 10.3887 166.104C10.9684 164.812 11.5485 163.521 12.1289 162.23C12.6556 161.059 13.1822 159.887 13.7249 158.68C15.4713 155.009 15.4713 155.009 19.5625 154.938Z" fill="currentColor"/>
<path d="M89.1139 0C89.7739 0 90.4339 0 91.1139 0C91.1139 1.32 91.1139 2.64 91.1139 4C91.7739 4 92.4339 4 93.1139 4C93.5122 5.0248 93.9105 6.04961 94.3209 7.10547C94.8558 8.46624 95.391 9.82691 95.9264 11.1875C96.3179 12.1978 96.3179 12.1978 96.7174 13.2285C97.8476 16.0889 98.9517 18.7356 100.563 21.3633C101.952 23.724 102.917 25.9102 103.907 28.4531C106.465 35.015 109.446 41.3717 112.426 47.75C113.01 49.0037 113.593 50.2575 114.176 51.5112C117.587 58.8263 121.107 66.0678 124.774 73.2578C126.373 76.5305 127.682 79.8681 128.979 83.2688C130.245 86.3149 131.703 89.209 133.208 92.1445C137.223 100.079 140.909 108.153 144.533 116.272C145.631 118.727 146.744 121.175 147.856 123.623C148.557 125.19 149.258 126.757 149.958 128.324C150.291 129.052 150.624 129.78 150.967 130.53C153.228 135.657 153.228 135.657 152.114 139C147.681 134.592 143.253 130.182 138.827 125.768C137.323 124.269 135.819 122.772 134.314 121.275C132.139 119.113 129.968 116.947 127.797 114.781C127.134 114.123 126.47 113.464 125.786 112.785C121.889 108.889 118.185 104.881 114.599 100.696C112.822 98.6661 110.907 96.8299 108.926 95C103.661 89.7954 101.419 83.9802 98.9615 77.1328C97.6372 73.8006 95.9528 70.6605 94.317 67.4727C92.6578 64.0626 91.4091 60.562 90.1139 57C89.7839 56.67 89.4539 56.34 89.1139 56C89.0202 54.2507 88.9964 52.4976 89.0004 50.7458C89.0004 49.6248 89.0005 48.5037 89.0006 47.3486C89.0058 46.1288 89.0109 44.9091 89.0162 43.6523C89.0177 42.4108 89.0191 41.1692 89.0205 39.89C89.0252 36.5839 89.0342 33.2779 89.0452 29.9719C89.0554 26.6004 89.06 23.2289 89.0651 19.8574C89.0761 13.2383 89.0929 6.61913 89.1139 0Z" fill="currentColor"/>
<path d="M83 1C83.66 1 84.32 1 85 1C85.1019 8.64962 85.1717 16.2991 85.2197 23.9492C85.2398 26.5486 85.267 29.1479 85.3018 31.7471C85.3506 35.4956 85.373 39.2434 85.3906 42.9922C85.4113 44.1436 85.4319 45.2951 85.4532 46.4814C85.4552 53.8595 84.2074 59.3718 81 66C80.5566 67.0841 80.1131 68.1682 79.6563 69.2852C77.1827 75.2267 74.651 81.1353 72 87C71.34 87 69.2596 91.3335 68.5796 91.3335C68.4747 91.9281 69.7902 88.1892 69.6821 88.8018C68.8967 91.333 67.9854 92.3506 66.0859 94.1719C65.4891 94.7545 64.8923 95.3372 64.2773 95.9375C63.6496 96.5356 63.0218 97.1338 62.375 97.75C58.7219 101.271 55.1387 104.775 51.8477 108.641C46.5904 114.746 40.7774 120.328 35.0625 126C33.8897 127.168 32.7172 128.336 31.5449 129.504C28.6993 132.339 25.8505 135.17 23 138C21.7007 135.036 22.0365 133.9 23.1682 130.799C23.7575 129.537 24.3599 128.282 24.9727 127.031C25.2928 126.355 25.6129 125.679 25.9427 124.982C26.9717 122.816 28.0169 120.658 29.0625 118.5C29.74 117.079 30.4164 115.657 31.0918 114.234C34.5598 106.954 38.1101 99.719 41.7712 92.5332C43.3493 89.2799 44.6358 85.9463 45.9336 82.5742C47.5832 78.5921 49.5604 74.786 51.5352 70.957C53.1551 67.687 54.5668 64.356 56 61C57.6473 57.4236 59.3472 53.8719 61.0391 50.3164C63.1248 45.9141 65.099 41.4851 67 37C69.2769 31.8681 71.5867 26.7586 74.125 21.75C77.5277 15.0262 80.2255 7.9996 83 1Z" fill="currentColor"/>
<path d="M86.8946 82.1757C89.528 83.2066 90.8225 84.562 92.75 86.6249C95.944 90.0202 99.3362 93.0638 102.855 96.1127C106.404 99.2352 109.821 102.496 113.25 105.75C118.178 110.409 123.117 115.051 128.125 119.625C132.761 123.863 137.391 128.108 142 132.375C142.636 132.958 143.271 133.542 143.926 134.143C147.262 137.239 150.261 140.343 153 144C131.219 146.077 131.219 146.077 124.969 141.75C122.177 139.319 119.794 136.558 117.452 133.698C115.02 130.854 112.223 128.428 109.438 125.937C108.364 124.95 107.293 123.96 106.223 122.969C104.026 120.943 101.826 118.923 99.6211 116.906C99.0759 116.407 98.5308 115.909 97.969 115.395C96.467 114.021 94.964 112.649 93.461 111.277C91 109 91 109 89.4141 107.129C88.0597 105.775 88.0597 105.775 86.1685 106.204C83.4508 107.201 81.9747 108.592 79.8907 110.598C79.1366 111.316 78.3825 112.035 77.6055 112.775C76.8282 113.53 76.0509 114.285 75.25 115.062C74.4573 115.821 73.6645 116.58 72.8477 117.361C70.8921 119.234 68.9433 121.114 67 123C66 120 66 120 67.625 116.625C67.9976 115.928 68.3701 115.23 68.754 114.512C70.7544 110.479 72.2511 106.262 73.8399 102.055C81.5772 81.6823 81.5772 81.6823 86.8946 82.1757Z" fill="currentColor"/>
<path d="M63 102C63.66 102 64.32 102 65 102C62.9732 108.532 60.4723 114.723 57.625 120.938C57.228 121.813 56.8309 122.688 56.4219 123.59C54.019 128.859 51.5507 134.085 48.875 139.223C47.8716 141.16 47.8716 141.16 47 144C37.76 144 28.52 144 19 144C21.475 141.525 21.475 141.525 24 139C24.718 138.27 25.436 137.541 26.1758 136.789C27.2335 135.718 27.2335 135.718 28.3125 134.625C29.0099 133.916 29.7073 133.207 30.4258 132.477C32.4904 130.49 34.5821 128.605 36.7461 126.73C41.9985 122.172 46.9912 117.348 51.9961 112.521C52.7141 111.838 53.4321 111.154 54.1719 110.449C54.8122 109.834 55.4526 109.219 56.1123 108.585C58 107 58 107 60.1768 105.972C62.3562 105.079 62.3562 105.079 63 102Z" fill="currentColor"/>
<path d="M96 156C104.58 156 113.16 156 122 156C122 157.98 122 159.96 122 162C115.73 162 109.46 162 103 162C103 164.64 103 167.28 103 170C108.94 170 114.88 170 121 170C121 171.98 121 173.96 121 176C114.73 176 108.46 176 102 176C102 178.97 102 181.94 102 185C108.93 185 115.86 185 123 185C123 186.98 123 188.96 123 191C114.09 191 105.18 191 96 191C96 179.45 96 167.9 96 156Z" fill="currentColor"/>
<path d="M137 155C142.021 154.031 142.021 154.031 145 155C147.881 158.376 149.959 162.071 152 166C154.496 163.628 156.096 161.822 157.75 158.75C160 156 160 156 162.031 155.617C164.25 155.625 164.25 155.625 168 156C165.405 160.791 162.584 164.933 159.074 169.106C157.788 170.919 157.788 170.919 158.29 172.891C159.036 175.108 159.962 176.714 161.285 178.637C161.733 179.296 162.181 179.956 162.643 180.635C163.345 181.651 163.345 181.651 164.062 182.688C169 189.888 169 189.888 169 191C164.071 191.968 164.071 191.968 161 191C158.527 188.338 156.624 185.561 154.664 182.504C153.242 179.914 153.242 179.914 151 179C150.773 179.681 150.546 180.361 150.312 181.063C147.082 188.293 147.082 188.293 144 191C141.096 191.614 139.001 191.356 136 191C138.892 185.473 141.91 180.601 146.059 175.922C147.263 173.984 147.263 173.984 146.418 171.652C144.759 168.55 142.879 165.704 140.875 162.813C137 157.221 137 157.221 137 155Z" fill="currentColor"/>
<path d="M59 162C69.3491 161.63 69.3491 161.63 72.332 163.324C74 165 74 165 74.4375 168C74 171 74 171 72.6875 172.812C69.62 174.971 66.9361 175.115 63.3125 175.062C61.8894 175.042 60.4662 175.021 59 175C59 170.71 59 166.42 59 162Z" fill="currentColor" fill-opacity="0.15"/>
<path d="M18 164C18.66 164 19.32 164 20 164C20.6731 165.601 21.3382 167.206 22 168.812C22.3713 169.706 22.7425 170.599 23.125 171.52C24 174 24 174 24 177C20.7 177 17.4 177 14 177C14.591 172.153 15.9794 168.393 18 164Z" fill="currentColor"/>
</svg>
